<?xml version="1.0" ?><!DOCTYPE svg  PUBLIC '-//W3C//DTD SVG 1.1//EN'  'http://www.w3.org/Graphics/SVG/1.1/DTD/svg11.dtd'><svg height="8.4666mm" style="shape-rendering:geometricPrecision; text-rendering:geometricPrecision; image-rendering:optimizeQuality; fill-rule:evenodd; clip-rule:evenodd" version="1.1" viewBox="0 0 847 847" width="8.4666mm" xml:space="preserve" xmlns="http://www.w3.org/2000/svg" xmlns:xlink="http://www.w3.org/1999/xlink"><defs><style type="text/css">
   <![CDATA[
    .fil0 {fill:black;fill-rule:nonzero;fill-opacity:0.501961}
   ]]>
  </style></defs><g id="Layer_x0020_1"><path class="fil0" d="M423 40c106,0 202,43 271,112 70,70 113,166 113,271 0,106 -43,202 -113,271 -69,70 -165,113 -271,113 -105,0 -201,-43 -271,-113 -69,-69 -112,-165 -112,-271 0,-105 43,-201 112,-271 70,-69 166,-112 271,-112zm247 136c-63,-63 -150,-102 -247,-102 -96,0 -184,39 -247,102 -63,63 -102,151 -102,247 0,97 39,184 102,247 63,64 151,103 247,103 97,0 184,-39 247,-103 64,-63 103,-150 103,-247 0,-96 -39,-184 -103,-247zm-402 94l0 -40c0,-9 8,-16 17,-16l277 0c9,0 17,7 17,16l0 40 23 0c12,0 23,5 32,13 8,9 13,20 13,32l0 151c0,12 -5,24 -13,32 -9,8 -20,13 -32,13l-42 0 0 119c0,9 -8,16 -17,16l-239 0c-9,0 -17,-7 -17,-16l0 -119 -42 0c-12,0 -24,-5 -32,-13l0 0c-8,-9 -13,-20 -13,-32l0 -151c0,-12 5,-23 13,-32l1 0c8,-8 19,-13 31,-13l23 0zm34 -23l0 23 243 0 0 -23 -243 0zm-57 231l42 0 0 -75c0,-10 8,-17 17,-17l239 0c9,0 17,7 17,17l0 75 42 0c3,0 5,-2 7,-4 3,-2 4,-5 4,-8l0 -151c0,-3 -1,-6 -4,-8 -2,-2 -4,-3 -7,-3l-357 0c-3,0 -6,1 -8,3l0 0c-2,2 -3,5 -3,8l0 151c0,3 1,6 3,8l0 0c2,2 5,4 8,4zm281 -58l-205 0 0 193 205 0 0 -193z"/></g></svg>